<svg version="1.1" xmlns="http://www.w3.org/2000/svg" viewBox="0 0 512 512" fill="currentColor" width="512" height="512">
	<path d="M499.8,178c0-0.3-0.1-0.6-0.2-0.9c-0.1-0.6-0.2-1.2-0.4-1.8c-0.1-0.3-0.2-0.7-0.3-1c-0.2-0.5-0.3-1-0.5-1.5
		c-0.1-0.3-0.3-0.7-0.5-1c-0.2-0.5-0.4-0.9-0.7-1.4c-0.2-0.3-0.4-0.7-0.6-1c-0.3-0.4-0.6-0.9-0.9-1.3c-0.2-0.3-0.5-0.6-0.7-0.9
		c-0.3-0.4-0.7-0.8-1-1.1c-0.3-0.3-0.5-0.6-0.8-0.8c-0.4-0.3-0.8-0.7-1.2-1c-0.3-0.2-0.6-0.5-0.9-0.7c-0.1-0.1-0.2-0.2-0.3-0.3
		l-223-148.7c-7-4.7-16.2-4.7-23.3,0l-223,148.7c-0.1,0.1-0.2,0.2-0.3,0.3c-0.3,0.2-0.6,0.5-0.9,0.7c-0.4,0.3-0.8,0.7-1.2,1
		c-0.3,0.3-0.6,0.5-0.8,0.8c-0.4,0.4-0.7,0.7-1,1.1c-0.2,0.3-0.5,0.6-0.7,0.9c-0.3,0.4-0.6,0.8-0.9,1.3c-0.2,0.3-0.4,0.6-0.6,1
		c-0.3,0.4-0.5,0.9-0.7,1.4c-0.2,0.3-0.3,0.7-0.5,1c-0.2,0.5-0.4,1-0.5,1.5c-0.1,0.3-0.2,0.7-0.3,1c-0.2,0.6-0.3,1.2-0.4,1.8
		c-0.1,0.3-0.1,0.6-0.2,0.9c-0.1,0.9-0.2,1.8-0.2,2.7v148.7c0,0.9,0.1,1.8,0.2,2.7c0,0.3,0.1,0.6,0.2,0.9c0.1,0.6,0.2,1.2,0.4,1.8
		c0.1,0.3,0.2,0.7,0.3,1c0.2,0.5,0.3,1,0.5,1.5c0.1,0.3,0.3,0.7,0.5,1c0.2,0.5,0.5,0.9,0.7,1.4c0.2,0.3,0.4,0.6,0.6,1
		c0.3,0.4,0.6,0.9,0.9,1.3c0.2,0.3,0.5,0.6,0.7,0.9c0.3,0.4,0.7,0.8,1,1.1c0.3,0.3,0.5,0.6,0.8,0.8c0.4,0.3,0.8,0.7,1.2,1
		c0.3,0.2,0.6,0.5,0.9,0.7c0.1,0.1,0.2,0.2,0.3,0.3l223,148.7c3.5,2.3,7.6,3.5,11.6,3.5c4,0,8.1-1.2,11.6-3.5l223-148.7
		c0.1-0.1,0.2-0.2,0.3-0.3c0.3-0.2,0.6-0.5,0.9-0.7c0.4-0.3,0.8-0.7,1.2-1c0.3-0.3,0.6-0.5,0.8-0.8c0.4-0.4,0.7-0.7,1-1.1
		c0.2-0.3,0.5-0.6,0.7-0.9c0.3-0.4,0.6-0.8,0.9-1.3c0.2-0.3,0.4-0.6,0.6-1c0.3-0.5,0.5-0.9,0.7-1.4c0.2-0.3,0.3-0.7,0.5-1
		c0.2-0.5,0.4-1,0.5-1.5c0.1-0.3,0.2-0.7,0.3-1c0.2-0.6,0.3-1.2,0.4-1.8c0.1-0.3,0.1-0.6,0.2-0.9c0.1-0.9,0.2-1.8,0.2-2.7V180.7
		C500,179.8,499.9,178.9,499.8,178z M277,71.2l164.3,109.5l-73.4,49.1L277,169V71.2z M235.1,71.2V169l-90.9,60.8l-73.4-49.1
		L235.1,71.2z M54,220l52.5,35.1L54,290.1V220z M235.1,438.9L70.8,329.3l73.4-49.1l90.9,60.8V438.9z M256.1,304.6L181.9,255
		l74.2-49.6l74.1,49.6L256.1,304.6z M277,438.9v-97.8l90.9-60.8l73.4,49.1L277,438.9z M458.1,290.1L405.6,255l52.4-35.1V290.1z"/>
</svg>
