<svg version="1.1" id="github" xmlns="http://www.w3.org/2000/svg" viewBox="0 0 512 512" width="512" height="512" fill="currentColor">
	<path d="M359.3,490.3c16.8,0,14.4,20.4,14.4,20.4h-218c0,0-2.4-20.4,14.4-20.4c15.6,0,19.2-7.2,19.2-14.4L188,416
		c-85,19.2-103-33.5-103-33.5c-14.4-35.9-33.5-44.3-33.5-44.3C22.7,319,52.7,319,52.7,319c31.1,2.4,47.9,31.1,47.9,31.1
		c26.4,46.7,70.7,33.5,88.6,26.4c2.4-20.4,10.8-33.5,19.2-41.9C140.1,327.4,69.4,301,69.4,183.6c0-33.5,12-61.1,31.1-82.6
		c-3.6-7.2-13.2-38.3,3.6-80.3c0,0,25.2-8.4,83.8,31.1c50.3-14.4,103-14.4,153.3,0c58.7-39.5,83.8-31.1,83.8-31.1
		c16.8,41.9,7.2,73.1,3.6,80.3c19.2,21.6,31.1,49.1,31.1,82.6c0,117.4-71.9,143.7-140.1,150.9c12,9.6,21.6,28.7,21.6,57.5l-1.2,83.8
		C340.1,483.1,343.7,490.3,359.3,490.3z"/>
</svg>
